<?xml version="1.0" encoding="UTF-8" standalone="no"?>
<!DOCTYPE svg PUBLIC "-//W3C//DTD SVG 1.1//EN"
 "http://www.w3.org/Graphics/SVG/1.1/DTD/svg11.dtd">
<!-- Generated by graphviz version 2.43.0 (0)
 -->
<!-- Title: protodot Pages: 1 -->
<svg width="392pt" height="185pt"
 viewBox="0.00 0.00 392.00 184.50" xmlns="http://www.w3.org/2000/svg" xmlns:xlink="http://www.w3.org/1999/xlink">
<g id="graph0" class="graph" transform="scale(1 1) rotate(0) translate(4 180.5)">
<title>protodot</title>
<g id="a_graph0"><a xlink:title="tcm.messages">
<text text-anchor="middle" x="192" y="-7.8" font-family="Times,serif" font-size="14.00">tcm.messages</text>
</a>
</g>
<g id="clust1" class="cluster">
<title>cluster_150e85589c3f</title>
<g id="a_clust1"><a xlink:title="tcm/protobuf/tcm_message.proto">
<polygon fill="#caff70" stroke="black" points="229,-31 229,-156 384,-156 384,-31 229,-31"/>
<text text-anchor="middle" x="306.5" y="-140.8" font-family="Times,serif" font-size="14.00">tcm_message.proto</text>
</a>
</g>
</g>
<!-- Node_Ja_100 -->
<g id="node1" class="node">
<title>Node_Ja_100</title>
<g id="a_node1"><a xlink:title="tcm.protobuf.Header">
<polygon fill="#fffaf0" stroke="transparent" points="257,-43.5 257,-120.5 356,-120.5 356,-43.5 257,-43.5"/>
<polygon fill="#e31a1c" stroke="transparent" points="258.5,-104 258.5,-119 355.5,-119 355.5,-104 258.5,-104"/>
<text text-anchor="start" x="317.5" y="-110" font-family="Ubuntu" font-weight="bold" font-size="10.00">Header</text>
<text text-anchor="start" x="277.5" y="-94" font-family="Ubuntu" font-size="10.00">1</text>
<text text-anchor="start" x="288.5" y="-94" font-family="Ubuntu" font-size="10.00">version</text>
<polygon fill="#a6cee3" stroke="transparent" points="326.5,-89 326.5,-104 355.5,-104 355.5,-89 326.5,-89"/>
<text text-anchor="start" x="329.5" y="-95" font-family="Ubuntu" font-style="italic" font-size="10.00">int32</text>
<text text-anchor="start" x="277.5" y="-79" font-family="Ubuntu" font-size="10.00">2</text>
<text text-anchor="start" x="288.5" y="-79" font-family="Ubuntu" font-size="10.00">info</text>
<polygon fill="#a6cee3" stroke="transparent" points="326.5,-74 326.5,-89 355.5,-89 355.5,-74 326.5,-74"/>
<text text-anchor="start" x="328.5" y="-80" font-family="Ubuntu" font-style="italic" font-size="10.00">string</text>
<text text-anchor="start" x="277.5" y="-64" font-family="Ubuntu" font-size="10.00">3</text>
<text text-anchor="start" x="288.5" y="-64" font-family="Ubuntu" font-size="10.00">sender</text>
<polygon fill="#a6cee3" stroke="transparent" points="326.5,-59 326.5,-74 355.5,-74 355.5,-59 326.5,-59"/>
<text text-anchor="start" x="328.5" y="-65" font-family="Ubuntu" font-style="italic" font-size="10.00">string</text>
<text text-anchor="start" x="260.5" y="-49" font-family="Ubuntu" font-size="10.00">[...]</text>
<text text-anchor="start" x="277.5" y="-49" font-family="Ubuntu" font-size="10.00">4</text>
<text text-anchor="start" x="288.5" y="-49" font-family="Ubuntu" font-size="10.00">receiver</text>
<polygon fill="#a6cee3" stroke="transparent" points="326.5,-44 326.5,-59 355.5,-59 355.5,-44 326.5,-44"/>
<text text-anchor="start" x="328.5" y="-50" font-family="Ubuntu" font-style="italic" font-size="10.00">string</text>
<polygon fill="none" stroke="black" points="257,-43.5 257,-120.5 356,-120.5 356,-43.5 257,-43.5"/>
</a>
</g>
</g>
<!-- Node_Ja_101 -->
<g id="node2" class="node">
<title>Node_Ja_101</title>
<g id="a_node2"><a xlink:title="tcm.messages.NetworkFeeRequest">
<polygon fill="#fffaf0" stroke="transparent" points="8,-125.5 8,-172.5 193,-172.5 193,-125.5 8,-125.5"/>
<polygon fill="#e31a1c" stroke="transparent" points="9.5,-156 9.5,-171 192.5,-171 192.5,-156 9.5,-156"/>
<text text-anchor="start" x="90.5" y="-162" font-family="Ubuntu" font-weight="bold" font-size="10.00">NetworkFeeRequest</text>
<text text-anchor="start" x="15.5" y="-146" font-family="Ubuntu" font-size="10.00">1</text>
<text text-anchor="start" x="26.5" y="-146" font-family="Ubuntu" font-size="10.00">header</text>
<polygon fill="#fb9a99" stroke="transparent" points="88.5,-141 88.5,-156 192.5,-156 192.5,-141 88.5,-141"/>
<text text-anchor="start" x="90.5" y="-147" font-family="Ubuntu" font-weight="bold" font-size="10.00">tcm.protobuf.Header</text>
<text text-anchor="start" x="15.5" y="-131" font-family="Ubuntu" font-size="10.00">2</text>
<text text-anchor="start" x="26.5" y="-131" font-family="Ubuntu" font-size="10.00">block_height</text>
<polygon fill="#a6cee3" stroke="transparent" points="88.5,-126 88.5,-141 192.5,-141 192.5,-126 88.5,-126"/>
<text text-anchor="start" x="166.5" y="-132" font-family="Ubuntu" font-style="italic" font-size="10.00">int64</text>
<polygon fill="none" stroke="black" points="8,-125.5 8,-172.5 193,-172.5 193,-125.5 8,-125.5"/>
</a>
</g>
</g>
<!-- Node_Ja_101&#45;&gt;Node_Ja_100 -->
<g id="edge1" class="edge">
<title>Node_Ja_101:e&#45;&gt;Node_Ja_100:header</title>
<g id="a_edge1"><a xlink:title="Ja_101 &#45;&#45;&gt; Ja_100">
<path fill="none" stroke="#000000" d="M193.5,-148C222.31,-148 224.7,-119.94 247.31,-113.37"/>
<polygon fill="#000000" stroke="#000000" points="248.05,-116.8 257.5,-112 247.12,-109.86 248.05,-116.8"/>
</a>
</g>
</g>
<!-- Node_Ja_102 -->
<g id="node3" class="node">
<title>Node_Ja_102</title>
<g id="a_node3"><a xlink:title="tcm.messages.NetworkFeeResponse">
<polygon fill="#fffaf0" stroke="transparent" points="9,-37 9,-99 192,-99 192,-37 9,-37"/>
<polygon fill="#e31a1c" stroke="transparent" points="10.5,-83 10.5,-98 191.5,-98 191.5,-83 10.5,-83"/>
<text text-anchor="start" x="83.5" y="-89" font-family="Ubuntu" font-weight="bold" font-size="10.00">NetworkFeeResponse</text>
<text text-anchor="start" x="16.5" y="-73" font-family="Ubuntu" font-size="10.00">1</text>
<text text-anchor="start" x="27.5" y="-73" font-family="Ubuntu" font-size="10.00">header</text>
<polygon fill="#fb9a99" stroke="transparent" points="87.5,-68 87.5,-83 191.5,-83 191.5,-68 87.5,-68"/>
<text text-anchor="start" x="89.5" y="-74" font-family="Ubuntu" font-weight="bold" font-size="10.00">tcm.protobuf.Header</text>
<text text-anchor="start" x="16.5" y="-58" font-family="Ubuntu" font-size="10.00">3</text>
<text text-anchor="start" x="27.5" y="-58" font-family="Ubuntu" font-size="10.00">network_fee</text>
<polygon fill="#a6cee3" stroke="transparent" points="87.5,-53 87.5,-68 191.5,-68 191.5,-53 87.5,-53"/>
<text text-anchor="start" x="165.5" y="-59" font-family="Ubuntu" font-style="italic" font-size="10.00">int64</text>
<text text-anchor="start" x="16.5" y="-43" font-family="Ubuntu" font-size="10.00">4</text>
<text text-anchor="start" x="27.5" y="-43" font-family="Ubuntu" font-size="10.00">currency</text>
<polygon fill="#a6cee3" stroke="transparent" points="87.5,-38 87.5,-53 191.5,-53 191.5,-38 87.5,-38"/>
<text text-anchor="start" x="164.5" y="-44" font-family="Ubuntu" font-style="italic" font-size="10.00">string</text>
<polygon fill="none" stroke="black" points="9,-37 9,-99 192,-99 192,-37 9,-37"/>
</a>
</g>
</g>
<!-- Node_Ja_102&#45;&gt;Node_Ja_100 -->
<g id="edge2" class="edge">
<title>Node_Ja_102:e&#45;&gt;Node_Ja_100:header</title>
<g id="a_edge2"><a xlink:title="Ja_102 &#45;&#45;&gt; Ja_100">
<path fill="none" stroke="#000000" d="M192.5,-76C221.78,-76 224.28,-104.31 247.49,-110.72"/>
<polygon fill="#000000" stroke="#000000" points="247.14,-114.2 257.5,-112 248.03,-107.26 247.14,-114.2"/>
</a>
</g>
</g>
</g>
</svg>
