<?xml version="1.0" encoding="UTF-8" standalone="no"?>
<!DOCTYPE svg PUBLIC "-//W3C//DTD SVG 1.1//EN"
 "http://www.w3.org/Graphics/SVG/1.1/DTD/svg11.dtd">
<!-- Generated by graphviz version 2.43.0 (0)
 -->
<!-- Title: protodot Pages: 1 -->
<svg width="397pt" height="185pt"
 viewBox="0.00 0.00 397.00 184.50" xmlns="http://www.w3.org/2000/svg" xmlns:xlink="http://www.w3.org/1999/xlink">
<g id="graph0" class="graph" transform="scale(1 1) rotate(0) translate(4 180.5)">
<title>protodot</title>
<g id="a_graph0"><a xlink:title="tcm.messages">
<text text-anchor="middle" x="194.5" y="-7.8" font-family="Times,serif" font-size="14.00">tcm.messages</text>
</a>
</g>
<g id="clust1" class="cluster">
<title>cluster_150e85589c3f</title>
<g id="a_clust1"><a xlink:title="tcm/protobuf/tcm_message.proto">
<polygon fill="#caff70" stroke="black" points="234,-31 234,-156 389,-156 389,-31 234,-31"/>
<text text-anchor="middle" x="311.5" y="-140.8" font-family="Times,serif" font-size="14.00">tcm_message.proto</text>
</a>
</g>
</g>
<!-- Node_Ja_100 -->
<g id="node1" class="node">
<title>Node_Ja_100</title>
<g id="a_node1"><a xlink:title="tcm.protobuf.Header">
<polygon fill="#fffaf0" stroke="transparent" points="262,-43.5 262,-120.5 361,-120.5 361,-43.5 262,-43.5"/>
<polygon fill="#e31a1c" stroke="transparent" points="263.5,-104 263.5,-119 360.5,-119 360.5,-104 263.5,-104"/>
<text text-anchor="start" x="322.5" y="-110" font-family="Ubuntu" font-weight="bold" font-size="10.00">Header</text>
<text text-anchor="start" x="282.5" y="-94" font-family="Ubuntu" font-size="10.00">1</text>
<text text-anchor="start" x="293.5" y="-94" font-family="Ubuntu" font-size="10.00">version</text>
<polygon fill="#a6cee3" stroke="transparent" points="331.5,-89 331.5,-104 360.5,-104 360.5,-89 331.5,-89"/>
<text text-anchor="start" x="334.5" y="-95" font-family="Ubuntu" font-style="italic" font-size="10.00">int32</text>
<text text-anchor="start" x="282.5" y="-79" font-family="Ubuntu" font-size="10.00">2</text>
<text text-anchor="start" x="293.5" y="-79" font-family="Ubuntu" font-size="10.00">info</text>
<polygon fill="#a6cee3" stroke="transparent" points="331.5,-74 331.5,-89 360.5,-89 360.5,-74 331.5,-74"/>
<text text-anchor="start" x="333.5" y="-80" font-family="Ubuntu" font-style="italic" font-size="10.00">string</text>
<text text-anchor="start" x="282.5" y="-64" font-family="Ubuntu" font-size="10.00">3</text>
<text text-anchor="start" x="293.5" y="-64" font-family="Ubuntu" font-size="10.00">sender</text>
<polygon fill="#a6cee3" stroke="transparent" points="331.5,-59 331.5,-74 360.5,-74 360.5,-59 331.5,-59"/>
<text text-anchor="start" x="333.5" y="-65" font-family="Ubuntu" font-style="italic" font-size="10.00">string</text>
<text text-anchor="start" x="265.5" y="-49" font-family="Ubuntu" font-size="10.00">[...]</text>
<text text-anchor="start" x="282.5" y="-49" font-family="Ubuntu" font-size="10.00">4</text>
<text text-anchor="start" x="293.5" y="-49" font-family="Ubuntu" font-size="10.00">receiver</text>
<polygon fill="#a6cee3" stroke="transparent" points="331.5,-44 331.5,-59 360.5,-59 360.5,-44 331.5,-44"/>
<text text-anchor="start" x="333.5" y="-50" font-family="Ubuntu" font-style="italic" font-size="10.00">string</text>
<polygon fill="none" stroke="black" points="262,-43.5 262,-120.5 361,-120.5 361,-43.5 262,-43.5"/>
</a>
</g>
</g>
<!-- Node_Ja_102 -->
<g id="node2" class="node">
<title>Node_Ja_102</title>
<g id="a_node2"><a xlink:title="tcm.messages.PingResponse">
<polygon fill="#fffaf0" stroke="transparent" points="8,-125.5 8,-172.5 198,-172.5 198,-125.5 8,-125.5"/>
<polygon fill="#e31a1c" stroke="transparent" points="9,-156 9,-171 197,-171 197,-156 9,-156"/>
<text text-anchor="start" x="127" y="-162" font-family="Ubuntu" font-weight="bold" font-size="10.00">PingResponse</text>
<text text-anchor="start" x="15" y="-146" font-family="Ubuntu" font-size="10.00">1</text>
<text text-anchor="start" x="26" y="-146" font-family="Ubuntu" font-size="10.00">header</text>
<polygon fill="#fb9a99" stroke="transparent" points="93,-141 93,-156 197,-156 197,-141 93,-141"/>
<text text-anchor="start" x="95" y="-147" font-family="Ubuntu" font-weight="bold" font-size="10.00">tcm.protobuf.Header</text>
<text text-anchor="start" x="15" y="-131" font-family="Ubuntu" font-size="10.00">2</text>
<text text-anchor="start" x="26" y="-131" font-family="Ubuntu" font-size="10.00">ping_message</text>
<polygon fill="#a6cee3" stroke="transparent" points="93,-126 93,-141 197,-141 197,-126 93,-126"/>
<text text-anchor="start" x="170" y="-132" font-family="Ubuntu" font-style="italic" font-size="10.00">string</text>
<polygon fill="none" stroke="black" points="8,-125.5 8,-172.5 198,-172.5 198,-125.5 8,-125.5"/>
</a>
</g>
</g>
<!-- Node_Ja_102&#45;&gt;Node_Ja_100 -->
<g id="edge2" class="edge">
<title>Node_Ja_102:e&#45;&gt;Node_Ja_100:header</title>
<g id="a_edge2"><a xlink:title="Ja_102 &#45;&#45;&gt; Ja_100">
<path fill="none" stroke="#000000" d="M198,-148C227.11,-148 229.5,-119.69 252.55,-113.28"/>
<polygon fill="#000000" stroke="#000000" points="253.03,-116.75 262.5,-112 252.13,-109.81 253.03,-116.75"/>
</a>
</g>
</g>
<!-- Node_Ja_101 -->
<g id="node3" class="node">
<title>Node_Ja_101</title>
<g id="a_node3"><a xlink:title="tcm.messages.PingRequest">
<polygon fill="#fffaf0" stroke="transparent" points="8,-52.5 8,-99.5 198,-99.5 198,-52.5 8,-52.5"/>
<polygon fill="#e31a1c" stroke="transparent" points="9,-83 9,-98 197,-98 197,-83 9,-83"/>
<text text-anchor="start" x="133" y="-89" font-family="Ubuntu" font-weight="bold" font-size="10.00">PingRequest</text>
<text text-anchor="start" x="15" y="-73" font-family="Ubuntu" font-size="10.00">1</text>
<text text-anchor="start" x="26" y="-73" font-family="Ubuntu" font-size="10.00">header</text>
<polygon fill="#fb9a99" stroke="transparent" points="93,-68 93,-83 197,-83 197,-68 93,-68"/>
<text text-anchor="start" x="95" y="-74" font-family="Ubuntu" font-weight="bold" font-size="10.00">tcm.protobuf.Header</text>
<text text-anchor="start" x="15" y="-58" font-family="Ubuntu" font-size="10.00">2</text>
<text text-anchor="start" x="26" y="-58" font-family="Ubuntu" font-size="10.00">ping_message</text>
<polygon fill="#a6cee3" stroke="transparent" points="93,-53 93,-68 197,-68 197,-53 93,-53"/>
<text text-anchor="start" x="170" y="-59" font-family="Ubuntu" font-style="italic" font-size="10.00">string</text>
<polygon fill="none" stroke="black" points="8,-52.5 8,-99.5 198,-99.5 198,-52.5 8,-52.5"/>
</a>
</g>
</g>
<!-- Node_Ja_101&#45;&gt;Node_Ja_100 -->
<g id="edge1" class="edge">
<title>Node_Ja_101:e&#45;&gt;Node_Ja_100:header</title>
<g id="a_edge1"><a xlink:title="Ja_101 &#45;&#45;&gt; Ja_100">
<path fill="none" stroke="#000000" d="M198,-75C227.3,-75 229.37,-104.09 252.5,-110.68"/>
<polygon fill="#000000" stroke="#000000" points="252.13,-114.16 262.5,-112 253.04,-107.22 252.13,-114.16"/>
</a>
</g>
</g>
</g>
</svg>
